<?xml version="1.0" encoding="utf-8"?>
<!-- Generator: Adobe Illustrator 16.0.3, SVG Export Plug-In . SVG Version: 6.00 Build 0)  -->
<!DOCTYPE svg PUBLIC "-//W3C//DTD SVG 1.1//EN" "http://www.w3.org/Graphics/SVG/1.1/DTD/svg11.dtd">
<svg version="1.1" id="Layer_1" xmlns="http://www.w3.org/2000/svg" xmlns:xlink="http://www.w3.org/1999/xlink" x="0px" y="0px"
	 width="16px" height="16px" viewBox="0 0 16 16" enable-background="new 0 0 16 16" xml:space="preserve">
<path fill="#969696" d="M8,6c0,1.104-0.896,2-2,2c0,1.104,0.896,2,2,2c1.104,0,2-0.896,2-2C10,6.896,9.104,6,8,6z M8,2
	C3.898,2,0,6.648,0,8c0,1.352,3.898,6,8,6c4.102,0,8-4.648,8-6C16,6.648,12.102,2,8,2z M8,12c-2.209,0-4-1.791-4-4s1.791-4,4-4
	s4,1.791,4,4S10.209,12,8,12z"/>
</svg>
