<?xml version="1.0" encoding="utf-8"?>
<!-- Generator: Adobe Illustrator 16.0.3, SVG Export Plug-In . SVG Version: 6.00 Build 0)  -->
<!DOCTYPE svg PUBLIC "-//W3C//DTD SVG 1.1//EN" "http://www.w3.org/Graphics/SVG/1.1/DTD/svg11.dtd">
<svg version="1.1" id="Layer_1" xmlns="http://www.w3.org/2000/svg" xmlns:xlink="http://www.w3.org/1999/xlink" x="0px" y="0px"
	 width="30px" height="30px" viewBox="5 5 30 30" enable-background="new 5 5 30 30" xml:space="preserve">
<path fill="#FFFFFF" d="M29.547,5h-2.729v8.182c0,0.752-0.61,1.363-1.362,1.363H13.183c-0.753,0-1.364-0.611-1.364-1.363V5H7.728
	C6.221,5,5,6.221,5,7.728v24.546C5,33.78,6.221,35,7.728,35h24.546C33.78,35,35,33.78,35,32.273V10.455L29.547,5z M29.547,32.273
	H10.455v-8.182c0-1.506,1.22-2.727,2.728-2.727h13.636c1.508,0,2.729,1.221,2.729,2.727V32.273z"/>
<rect x="21.001" y="5" fill="#FFFFFF" width="2.666" height="6.667"/>
</svg>
