<?xml version="1.0" encoding="utf-8"?>
<!-- Generator: Adobe Illustrator 16.0.3, SVG Export Plug-In . SVG Version: 6.00 Build 0)  -->
<!DOCTYPE svg PUBLIC "-//W3C//DTD SVG 1.1//EN" "http://www.w3.org/Graphics/SVG/1.1/DTD/svg11.dtd">
<svg version="1.1" id="Layer_1" xmlns="http://www.w3.org/2000/svg" xmlns:xlink="http://www.w3.org/1999/xlink" x="0px" y="0px"
	 width="40px" height="40px" viewBox="0 0 40 40" enable-background="new 0 0 40 40" xml:space="preserve">
<title></title>
<g id="Onedrive">
	<path fill="#FFFFFF" d="M36.45,23.566c0.144-0.48,0.216-0.98,0.216-1.482c0.015-2.983-2.392-5.412-5.374-5.426
		c-1.337-0.006-2.629,0.484-3.626,1.375c-2.447-3.319-7.121-4.025-10.44-1.578c-1.683,1.242-2.769,3.132-2.992,5.211l0,0
		c-3.222,0-5.833,2.612-5.833,5.834s2.612,5.834,5.833,5.834H35c2.762-0.033,4.974-2.297,4.941-5.059
		C39.916,26.117,38.508,24.218,36.45,23.566L36.45,23.566z"/>
	<path fill="#FFFFFF" d="M6.667,27.5c-0.009-3.447,2.338-6.454,5.684-7.283c0.275-0.072,0.496-0.279,0.583-0.55
		c1.545-4.802,6.69-7.441,11.493-5.896c1.132,0.365,2.182,0.946,3.091,1.713c0.24,0.205,0.576,0.257,0.866,0.133
		c0.753-0.343,1.56-0.552,2.384-0.617c0.459-0.032,0.806-0.43,0.773-0.89c-0.001-0.02-0.004-0.04-0.007-0.061
		c-0.645-4.257-4.311-7.398-8.617-7.383c-3.047,0.015-5.868,1.612-7.449,4.217c-1.02-0.569-2.166-0.873-3.333-0.883
		C8.212,9.981,5.019,13.146,5,17.066c0,0.006,0,0.011,0,0.017c0,0.731,0.118,1.457,0.35,2.15c-3.415,0.503-5.776,3.679-5.273,7.094
		c0.451,3.063,3.077,5.335,6.173,5.339h0.283c0.46,0.002,0.835-0.369,0.836-0.83c0-0.115-0.023-0.23-0.07-0.336
		C6.882,29.555,6.667,28.533,6.667,27.5z"/>
</g>
</svg>
