<?xml version="1.0" encoding="utf-8"?>
<!-- Generator: Adobe Illustrator 16.0.3, SVG Export Plug-In . SVG Version: 6.00 Build 0)  -->
<!DOCTYPE svg PUBLIC "-//W3C//DTD SVG 1.1//EN" "http://www.w3.org/Graphics/SVG/1.1/DTD/svg11.dtd">
<svg version="1.1" id="Layer_1" xmlns="http://www.w3.org/2000/svg" xmlns:xlink="http://www.w3.org/1999/xlink" x="0px" y="0px"
	 width="103.68px" height="103.68px" viewBox="0 0 103.68 103.68" enable-background="new 0 0 103.68 103.68" xml:space="preserve">
<g>
	<path stroke="#000000" stroke-width="3" stroke-miterlimit="10" d="M72.318,93.067c-7.358,3.881-14.857,5.359-23.828,5.359
		c-21.953,0-40.56-16.066-40.56-41.768c0-27.579,19.141-51.405,48.865-51.405c23.292,0,38.955,16.333,38.955,38.689
		c0,20.079-11.248,31.856-23.827,31.856c-5.363,0-10.313-3.615-9.908-11.777h-0.533c-4.686,7.896-10.844,11.777-18.877,11.777
		c-7.761,0-14.453-6.291-14.453-16.863c0-16.603,13.112-31.732,31.718-31.732c5.754,0,10.844,1.204,14.323,2.813l-4.547,24.231
		c-2.004,10.175-0.402,14.856,4.011,14.997c6.834,0.131,14.466-8.973,14.466-24.5c0-19.413-11.649-33.332-32.407-33.332
		c-21.81,0-40.155,17.265-40.155,44.445c0,22.357,14.595,36.141,34.401,36.141c7.63,0,14.727-1.604,20.219-4.684L72.318,93.067z
		 M64.96,35.238c-1.342-0.402-3.62-0.937-6.691-0.937c-11.782,0-21.288,11.113-21.288,24.096c0,5.891,2.943,10.176,8.839,10.176
		c7.761,0,14.857-9.91,16.329-18.205L64.96,35.238z"/>
</g>
</svg>
