<?xml version="1.0" encoding="utf-8"?>
<!-- Generator: Adobe Illustrator 16.0.3, SVG Export Plug-In . SVG Version: 6.00 Build 0)  -->
<!DOCTYPE svg PUBLIC "-//W3C//DTD SVG 1.1//EN" "http://www.w3.org/Graphics/SVG/1.1/DTD/svg11.dtd">
<svg version="1.1" id="Layer_1" xmlns="http://www.w3.org/2000/svg" xmlns:xlink="http://www.w3.org/1999/xlink" x="0px" y="0px"
	 width="48px" height="48px" viewBox="0 0 48 48" enable-background="new 0 0 48 48" xml:space="preserve">
<path fill="#002B41" d="M33,12v23c0,4.42-3.58,8-8,8s-8-3.58-8-8V10c0-2.76,2.24-5,5-5s5,2.24,5,5v21c0,1.1-0.891,2-2,2
	c-1.11,0-2-0.9-2-2V12h-3v19c0,2.76,2.24,5,5,5s5-2.24,5-5V10c0-4.42-3.58-8-8-8s-8,3.58-8,8v25c0,6.08,4.93,11,11,11
	c6.07,0,11-4.92,11-11V12H33z"/>
<path fill="none" d="M0,0h48v48H0V0z"/>
</svg>
