<?xml version="1.0" encoding="utf-8"?>
<!-- Generator: Adobe Illustrator 16.0.3, SVG Export Plug-In . SVG Version: 6.00 Build 0)  -->
<!DOCTYPE svg PUBLIC "-//W3C//DTD SVG 1.1//EN" "http://www.w3.org/Graphics/SVG/1.1/DTD/svg11.dtd">
<svg version="1.1" id="Layer_1" xmlns="http://www.w3.org/2000/svg" xmlns:xlink="http://www.w3.org/1999/xlink" x="0px" y="0px"
	 width="40px" height="40px" viewBox="0 0 40 40" enable-background="new 0 0 40 40" xml:space="preserve">
<g>
	<polygon fill="#FFFFFF" points="14.067,27.331 13.844,27.331 13.735,27.523 8.317,36.998 7.99,37.569 8.649,37.569 33.92,37.569 
		34.144,37.569 34.252,37.376 39.67,27.902 39.998,27.331 39.338,27.331 	"/>
	<polygon fill="#FFFFFF" points="28.096,24.938 28.206,25.128 28.43,25.128 39.34,25.082 40,25.079 39.67,24.509 27.034,2.623 
		26.925,2.431 26.702,2.432 15.789,2.477 15.129,2.479 15.459,3.05 	"/>
	<polygon fill="#FFFFFF" points="19.017,13.81 18.905,13.616 13.409,4.19 13.077,3.621 12.748,4.191 0.112,26.077 0,26.268 
		0.113,26.46 5.609,35.889 5.94,36.458 6.27,35.887 18.905,14 	"/>
</g>
</svg>
